<svg width="21" height="19" viewBox="0 0 21 19" fill="none" xmlns="http://www.w3.org/2000/svg">
<path id="Union" fill-rule="evenodd" clip-rule="evenodd" d="M16.5211 4.0624C17.6429 4.0624 18.5523 3.153 18.5523 2.0312C18.5523 0.9094 17.6429 0 16.5211 0C15.3993 0 14.4899 0.9094 14.4899 2.0312C14.4899 3.153 15.3993 4.0624 16.5211 4.0624ZM10.6209 3.12492H11.2976C12.6212 3.12492 13.9011 3.59829 14.9061 4.45951L16.3921 5.73281L18.3291 4.00014C18.7872 3.59036 19.4857 3.60975 19.9203 4.04431C20.3729 4.49671 20.3729 5.23032 19.9203 5.68271L18.5653 7.03737C17.365 8.23738 15.4192 8.23738 14.2188 7.03737L14.0733 6.89187L11.7545 9.21L12.7745 10.2298C13.95 11.4049 14.4697 13.0846 14.1633 14.7183L13.5617 17.9261C13.4398 18.576 12.8549 19.0346 12.1947 18.9979C11.4162 18.9547 10.8457 18.2482 10.9673 17.478L11.4536 14.399C11.5516 13.7787 11.3468 13.1489 10.9026 12.7048C10.1059 11.9083 8.80372 11.9445 8.05244 12.7839L7.70436 13.1728C7.23834 13.6935 6.57263 13.9911 5.87384 13.9911H2.11665C1.35649 13.9911 0.740265 13.3749 0.740265 12.6147C0.740265 11.8546 1.35649 11.2384 2.11665 11.2384H4.06321C4.89865 11.2384 5.69343 10.8778 6.24366 10.2491L10.0505 5.89968C10.2063 5.72167 10.0799 5.44304 9.84334 5.44304C9.76811 5.44304 9.69617 5.47382 9.64422 5.52823L7.46932 7.80605C7.03753 8.25827 6.31821 8.26663 5.87603 7.82457C5.44084 7.38951 5.44084 6.684 5.87603 6.24894L7.85525 4.27027C8.58883 3.5369 9.58365 3.12492 10.6209 3.12492Z" fill="white"/>
</svg>
